<svg xmlns="http://www.w3.org/2000/svg" xmlns:xlink="http://www.w3.org/1999/xlink" version="1.1" x="0px" y="0px" viewBox="0 0 100 125" style="enable-background:new 0 0 100 100;" xml:space="preserve"><style type="text/css">
	.st0{fill:none;stroke:#000000;stroke-width:2;stroke-linecap:round;stroke-linejoin:round;stroke-miterlimit:10;}
	.st1{fill:none;stroke:#000000;stroke-linecap:round;stroke-linejoin:round;stroke-miterlimit:10;}
</style><g><path d="M26,20h3v60h-3c-1.105,0-2-0.895-2-2V22C24,20.895,24.895,20,26,20z M76,22v56c0,1.105-0.895,2-2,2H31V20h43   C75.105,20,76,20.895,76,22z M62.5,55.5c0-3.314-2.686-6-6-6h-0.344c1.416-0.995,2.344-2.638,2.344-4.5   c0-3.429-3.137-6.124-6.697-5.374c-2.047,0.432-3.708,2.07-4.162,4.112c-0.527,2.366,0.474,4.547,2.203,5.762H49.5   c-3.314,0-6,2.686-6,6v3c0,0.552,0.448,1,1,1h17c0.552,0,1-0.448,1-1V55.5z"/></g><text x="0" y="115" fill="#000000" font-size="5px" font-weight="bold" font-family="'Helvetica Neue', Helvetica, Arial-Unicode, Arial, Sans-serif">Created by Setyo Ari Wibowo</text><text x="0" y="120" fill="#000000" font-size="5px" font-weight="bold" font-family="'Helvetica Neue', Helvetica, Arial-Unicode, Arial, Sans-serif">from the Noun Project</text></svg>