<svg xmlns="http://www.w3.org/2000/svg" xmlns:xlink="http://www.w3.org/1999/xlink" version="1.1" x="0px" y="0px" viewBox="0 0 100 125" enable-background="new 0 0 100 100" xml:space="preserve"><path d="M64.064,59.937c0-6.207-5.618-11.318-12.768-11.881V32.198c3.268,0.329,6.143,1.896,7.691,4.263  c0.605,0.926,1.849,1.183,2.769,0.579c0.925-0.605,1.184-1.845,0.579-2.769c-2.27-3.47-6.425-5.712-11.039-6.07v-7.495  c0-1.104-0.896-2-2-2s-2,0.896-2,2v7.649c-6.467,1.077-11.361,5.916-11.361,11.71c0,5.792,4.895,10.629,11.361,11.706v15.812  c-2.673-0.584-4.961-2.023-6.28-4.045c-0.604-0.923-1.843-1.184-2.769-0.581c-0.925,0.604-1.185,1.844-0.581,2.769  c2.034,3.114,5.59,5.235,9.63,5.902v7.666c0,1.104,0.896,2,2,2s2-0.896,2-2v-7.477C58.446,71.255,64.064,66.144,64.064,59.937z   M39.936,40.065c0-3.635,3.122-6.699,7.361-7.636v15.269C43.058,46.761,39.936,43.698,39.936,40.065z M51.297,67.799V52.074  c4.938,0.509,8.768,3.836,8.768,7.862S56.235,67.29,51.297,67.799z"/><text x="0" y="115" fill="#000000" font-size="5px" font-weight="bold" font-family="'Helvetica Neue', Helvetica, Arial-Unicode, Arial, Sans-serif">Created by Kidiladon</text><text x="0" y="120" fill="#000000" font-size="5px" font-weight="bold" font-family="'Helvetica Neue', Helvetica, Arial-Unicode, Arial, Sans-serif">from the Noun Project</text></svg>