<svg xmlns="http://www.w3.org/2000/svg" xmlns:xlink="http://www.w3.org/1999/xlink" version="1.1" x="0px" y="0px" viewBox="0 0 595.3 744.125" enable-background="new 0 0 595.3 595.3" xml:space="preserve"><path d="M189.9,209.7c-10.1,0-17.9-7.7-17.9-17.9V118c0-10.1,7.7-17.9,17.9-17.9c10.1,0,17.9,7.7,17.9,17.9v73.8  C207.8,202,200,209.7,189.9,209.7z"/><path d="M405.4,209.7c-10.1,0-17.9-7.7-17.9-17.9V118c0-10.1,7.7-17.9,17.9-17.9s17.9,7.7,17.9,17.9v73.8  C423.2,202,415.5,209.7,405.4,209.7z"/><path d="M490.8,129.2h-45.2c-7.8,0-14.2,6.3-14.2,14.2v47.9c0,14.8-12.2,26.1-26.1,26.1c-14.8,0-26.1-11.3-26.1-26.1v-47.9  c0-7.8-6.3-14.2-14.2-14.2h-135c-7.8,0-14.2,6.3-14.2,14.2v47.9c0,14.8-12.2,26.1-26.1,26.1c-14.8,0-26.1-11.3-26.1-26.1v-47.9  c0-7.8-6.3-14.2-14.2-14.2h-45.2c-7.8,0-14.2,6.3-14.2,14.2v337.4c0,7.8,6.3,14.2,14.2,14.2h386.4c7.8,0,14.2-6.3,14.2-14.2V143.4  C505,135.6,498.6,129.2,490.8,129.2z M471.1,446.7c0,7.8-6.3,14.2-14.2,14.2H138.3c-7.8,0-14.2-6.3-14.2-14.2V260  c0-7.8,6.3-14.2,14.2-14.2H457c7.8,0,14.2,6.3,14.2,14.2V446.7z"/><path d="M330.3,344.3h-64.2c-7.8,0-14.2-6.3-14.2-14.2v-53.6c0-7.8,6.3-14.2,14.2-14.2h64.2c7.8,0,14.2,6.3,14.2,14.2v53.6  C344.5,337.9,338.2,344.3,330.3,344.3z"/><path d="M220.1,344.3h-64.2c-7.8,0-14.2-6.3-14.2-14.2v-53.6c0-7.8,6.3-14.2,14.2-14.2h64.2c7.8,0,14.2,6.3,14.2,14.2v53.6  C234.3,337.9,228,344.3,220.1,344.3z"/><path d="M439.9,344.3h-64.2c-7.8,0-14.2-6.3-14.2-14.2v-53.6c0-7.8,6.3-14.2,14.2-14.2h64.2c7.8,0,14.2,6.3,14.2,14.2v53.6  C454.1,337.9,447.7,344.3,439.9,344.3z"/><path d="M330.3,443.9h-64.2c-7.8,0-14.2-6.3-14.2-14.2V376c0-7.8,6.3-14.2,14.2-14.2h64.2c7.8,0,14.2,6.3,14.2,14.2v53.6  C344.5,437.5,338.2,443.9,330.3,443.9z"/><path d="M220.1,443.9h-64.2c-7.8,0-14.2-6.3-14.2-14.2V376c0-7.8,6.3-14.2,14.2-14.2h64.2c7.8,0,14.2,6.3,14.2,14.2v53.6  C234.3,437.5,228,443.9,220.1,443.9z"/><path d="M439.9,443.9h-64.2c-7.8,0-14.2-6.3-14.2-14.2V376c0-7.8,6.3-14.2,14.2-14.2h64.2c7.8,0,14.2,6.3,14.2,14.2v53.6  C454.1,437.5,447.7,443.9,439.9,443.9z"/></svg>